<?xml version="1.0" encoding="UTF-8" standalone="no"?>
<svg
   xmlns:dc="http://purl.org/dc/elements/1.1/"
   xmlns:cc="http://creativecommons.org/ns#"
   xmlns:rdf="http://www.w3.org/1999/02/22-rdf-syntax-ns#"
   xmlns:svg="http://www.w3.org/2000/svg"
   xmlns="http://www.w3.org/2000/svg"
   width="1077.4192mm"
   height="254.00056mm"
   viewBox="0 0 1077.4192 254.00057"
   version="1.1"
   id="svg8">
  <defs
     id="defs2" />
  <metadata
     id="metadata5">
    <rdf:RDF>
      <cc:Work
         rdf:about="">
        <dc:format>image/svg+xml</dc:format>
        <dc:type
           rdf:resource="http://purl.org/dc/dcmitype/StillImage" />
        <dc:title></dc:title>
      </cc:Work>
    </rdf:RDF>
  </metadata>
  <g
     id="layer1"
     transform="translate(-9.6534951,-32.198753)">
    <flowRoot
       xml:space="preserve"
       id="flowRoot819"
       style="font-style:normal;font-weight:normal;font-size:40px;line-height:1.25;font-family:sans-serif;letter-spacing:0px;word-spacing:0px;fill:#000000;fill-opacity:1;stroke:none"
       transform="matrix(0.26458333,0,0,0.26458333,-11.544888,85.379316)"><flowRegion
         id="flowRegion821"><rect
           id="rect823"
           width="680"
           height="200"
           x="1320"
           y="488" /></flowRegion><flowPara
         id="flowPara825" /></flowRoot>
    <text
       xml:space="preserve"
       style="font-style:italic;font-variant:normal;font-weight:500;font-stretch:normal;font-size:126.349px;line-height:1.25;font-family:Roboto;-inkscape-font-specification:'Roboto, Medium Italic';font-variant-ligatures:normal;font-variant-caps:normal;font-variant-numeric:normal;font-variant-east-asian:normal;text-align:start;letter-spacing:8.22582px;text-anchor:start;fill:#ffffff;stroke-width:0.329033"
       x="666.27374"
       y="126.9605"
       id="text856"><tspan
         id="tspan854"
         x="666.27374"
         y="126.9605"
         style="font-style:italic;font-variant:normal;font-weight:500;font-stretch:normal;font-size:126.349px;font-family:Roboto;-inkscape-font-specification:'Roboto, Medium Italic';font-variant-ligatures:normal;font-variant-caps:normal;font-variant-numeric:normal;font-variant-east-asian:normal;text-align:center;letter-spacing:0px;text-anchor:middle;fill:#ffffff;stroke-width:0.329033">Upper Nehalem</tspan><tspan
         x="666.27374"
         y="284.89676"
         style="font-style:italic;font-variant:normal;font-weight:500;font-stretch:normal;font-size:126.349px;font-family:Roboto;-inkscape-font-specification:'Roboto, Medium Italic';font-variant-ligatures:normal;font-variant-caps:normal;font-variant-numeric:normal;font-variant-east-asian:normal;text-align:center;letter-spacing:0px;text-anchor:middle;fill:#ffffff;stroke-width:0.329033"
         id="tspan931">Flood</tspan></text>
    <g
       id="g929"
       transform="matrix(0.63517777,0,0,0.63517777,-18.585174,32.19907)"
       style="fill:#ffffff">
      <g
         id="g870"
         style="fill:#ffffff">
        <path
           id="path862"
           d="m 322.833,381.871 c -0.258,-0.005 -26.109,-0.57 -53.849,-7.807 -24.776,-6.463 -56.088,-19.696 -64.552,-46.03 -15.083,-46.925 34.861,-113.407 74.992,-166.826 30.772,-40.96 55.077,-73.313 53.277,-95.816 C 331.6,51.627 320.427,38.469 299.493,26.283 283.924,17.22 262.719,8.47 236.467,0.274 c -3.164,-0.987 -6.528,0.776 -7.516,3.939 -0.987,3.163 0.776,6.528 3.939,7.515 74.494,23.257 87.015,44.204 87.848,54.62 1.438,17.972 -23.989,51.819 -50.909,87.652 -43.97,58.529 -93.806,124.867 -76.822,177.705 19.092,59.399 125.096,62.078 129.599,62.163 0.039,0 0.077,0.001 0.115,0.001 3.261,0 5.935,-2.612 5.997,-5.887 0.064,-3.312 -2.572,-6.049 -5.885,-6.111 z"
           style="fill:#ffffff" />
        <path
           id="path864"
           d="M 244.412,89.767 C 248.448,77.661 247.278,66 240.936,55.111 219.323,17.997 143.113,2.62 139.879,1.983 c -3.25,-0.642 -6.406,1.477 -7.046,4.728 -0.64,3.251 1.477,6.406 4.729,7.046 0.187,0.037 18.888,3.761 39.875,11.66 27.08,10.192 45.453,22.548 53.131,35.733 4.594,7.889 5.399,16.009 2.461,24.823 -4.137,12.41 -31.346,35.429 -60.153,59.799 -31.966,27.042 -68.196,57.692 -94.246,89.904 -31.357,38.775 -41,71.624 -29.48,100.423 10.19,25.477 26.378,45.971 49.486,62.653 1.063,0.767 2.29,1.136 3.507,1.136 1.861,0 3.697,-0.864 4.87,-2.489 1.939,-2.687 1.334,-6.437 -1.353,-8.376 -21.208,-15.311 -36.049,-34.08 -45.369,-57.381 -22.388,-55.97 60.103,-125.754 120.334,-176.709 32.732,-27.691 58.586,-49.563 63.787,-65.166 z"
           style="fill:#ffffff" />
        <path
           id="path866"
           d="m 90.915,128.189 c -2.083,2.578 -1.682,6.355 0.895,8.438 2.577,2.083 6.354,1.682 8.438,-0.895 L 111,122.428 v 28.273 c 0,3.313 2.686,6 6,6 3.314,0 6,-2.687 6,-6 v -28.273 l 10.752,13.304 c 1.186,1.467 2.92,2.229 4.67,2.229 1.324,0 2.657,-0.436 3.768,-1.333 2.577,-2.083 2.978,-5.86 0.895,-8.438 L 123,103.336 V 92.081 l 10.752,13.305 c 1.186,1.467 2.92,2.229 4.67,2.229 1.324,0 2.657,-0.436 3.768,-1.333 2.577,-2.083 2.978,-5.86 0.895,-8.438 L 123,72.99 V 61.734 l 10.752,13.304 c 1.186,1.467 2.92,2.229 4.67,2.229 1.324,0 2.657,-0.437 3.768,-1.333 2.577,-2.083 2.978,-5.861 0.895,-8.438 L 121.667,40.993 c -1.139,-1.41 -2.854,-2.229 -4.667,-2.229 -1.813,0 -3.527,0.819 -4.667,2.229 L 90.915,67.496 c -2.083,2.577 -1.682,6.355 0.895,8.438 2.577,2.082 6.354,1.682 8.438,-0.896 L 111,61.734 V 72.99 L 90.915,97.843 c -2.083,2.578 -1.682,6.355 0.895,8.438 2.577,2.083 6.354,1.682 8.438,-0.895 L 111,92.081 v 11.255 z"
           style="fill:#ffffff" />
        <path
           id="path868"
           d="m 344.764,260.612 c 1.186,1.467 2.92,2.229 4.67,2.229 1.324,0 2.657,-0.436 3.768,-1.333 2.577,-2.083 2.978,-5.86 0.895,-8.438 L 323,214.591 v -26.857 l 21.763,26.929 c 1.186,1.467 2.92,2.229 4.67,2.229 1.324,0 2.657,-0.436 3.768,-1.333 2.577,-2.083 2.978,-5.86 0.895,-8.438 l -32.43,-40.128 c -1.139,-1.409 -2.854,-2.229 -4.667,-2.229 -1.813,0 -3.527,0.819 -4.667,2.229 l -32.43,40.128 c -2.083,2.578 -1.682,6.355 0.895,8.438 2.577,2.083 6.354,1.682 8.438,-0.895 L 311,187.735 v 26.857 l -31.096,38.478 c -2.083,2.578 -1.682,6.355 0.895,8.438 2.577,2.083 6.354,1.682 8.438,-0.895 L 311,233.683 v 26.857 l -31.096,38.478 c -2.083,2.578 -1.682,6.355 0.895,8.438 2.577,2.083 6.354,1.682 8.438,-0.895 L 311,279.631 v 51.57 c 0,3.313 2.687,6 6,6 3.313,0 6,-2.687 6,-6 v -51.57 l 21.763,26.929 c 1.186,1.467 2.92,2.229 4.67,2.229 1.324,0 2.657,-0.436 3.768,-1.333 2.577,-2.083 2.978,-5.86 0.895,-8.438 L 323,260.54 v -26.857 z"
           style="fill:#ffffff" />
      </g>
      <g
         id="g872"
         style="fill:#ffffff" />
      <g
         id="g874"
         style="fill:#ffffff" />
      <g
         id="g876"
         style="fill:#ffffff" />
      <g
         id="g878"
         style="fill:#ffffff" />
      <g
         id="g880"
         style="fill:#ffffff" />
      <g
         id="g882"
         style="fill:#ffffff" />
      <g
         id="g884"
         style="fill:#ffffff" />
      <g
         id="g886"
         style="fill:#ffffff" />
      <g
         id="g888"
         style="fill:#ffffff" />
      <g
         id="g890"
         style="fill:#ffffff" />
      <g
         id="g892"
         style="fill:#ffffff" />
      <g
         id="g894"
         style="fill:#ffffff" />
      <g
         id="g896"
         style="fill:#ffffff" />
      <g
         id="g898"
         style="fill:#ffffff" />
      <g
         id="g900"
         style="fill:#ffffff" />
    </g>
  </g>
</svg>
