<?xml version="1.0" encoding="UTF-8" standalone="no"?>
<svg
   xmlns:dc="http://purl.org/dc/elements/1.1/"
   xmlns:cc="http://creativecommons.org/ns#"
   xmlns:rdf="http://www.w3.org/1999/02/22-rdf-syntax-ns#"
   xmlns:svg="http://www.w3.org/2000/svg"
   xmlns="http://www.w3.org/2000/svg"
   xmlns:sodipodi="http://sodipodi.sourceforge.net/DTD/sodipodi-0.dtd"
   xmlns:inkscape="http://www.inkscape.org/namespaces/inkscape"
   sodipodi:docname="logo_white_text.svg"
   inkscape:version="1.0 (4035a4fb49, 2020-05-01)"
   id="svg8"
   version="1.1"
   viewBox="0 0 254 254.00001"
   height="254mm"
   width="254mm"
   inkscape:export-filename="\\COVDC1\Vernonia\Branding\Banners\3rd Party Banners\City Banner.png"
   inkscape:export-xdpi="96"
   inkscape:export-ydpi="96">
  <defs
     id="defs2" />
  <sodipodi:namedview
     inkscape:pagecheckerboard="false"
     inkscape:document-rotation="0"
     inkscape:window-maximized="1"
     inkscape:window-y="169"
     inkscape:window-x="3512"
     inkscape:window-height="1017"
     inkscape:window-width="1920"
     showgrid="true"
     inkscape:current-layer="layer1"
     inkscape:document-units="in"
     inkscape:cy="499.03222"
     inkscape:cx="1415.9924"
     inkscape:zoom="0.22"
     inkscape:pageshadow="2"
     inkscape:pageopacity="1"
     borderopacity="1.0"
     bordercolor="#666666"
     pagecolor="#7b8a8b"
     id="base"
     showguides="true"
     inkscape:guide-bbox="true">
    <inkscape:grid
       originy="53.180281"
       originx="-21.198383"
       id="grid817"
       type="xygrid"
       units="in"
       spacingx="6.35"
       spacingy="6.35" />
  </sodipodi:namedview>
  <metadata
     id="metadata5">
    <rdf:RDF>
      <cc:Work
         rdf:about="">
        <dc:format>image/svg+xml</dc:format>
        <dc:type
           rdf:resource="http://purl.org/dc/dcmitype/StillImage" />
        <dc:title></dc:title>
      </cc:Work>
    </rdf:RDF>
  </metadata>
  <g
     transform="translate(-9.6534956,-32.199038)"
     id="layer1"
     inkscape:groupmode="layer"
     inkscape:label="Layer 1">
    <flowRoot
       transform="matrix(0.26458333,0,0,0.26458333,-11.544888,85.379316)"
       style="font-style:normal;font-weight:normal;font-size:40px;line-height:1.25;font-family:sans-serif;letter-spacing:0px;word-spacing:0px;fill:#000000;fill-opacity:1;stroke:none"
       id="flowRoot819"
       xml:space="preserve"><flowRegion
         id="flowRegion821"><rect
           y="488"
           x="1320"
           height="200"
           width="680"
           id="rect823" /></flowRegion><flowPara
         id="flowPara825" /></flowRoot>
    <g
       style="fill:#ffffff"
       transform="matrix(0.81679174,0,0,0.63517777,-26.659349,32.19907)"
       id="g929">
      <g
         style="fill:#ffffff"
         id="g870">
        <path
           style="fill:#ffffff"
           d="m 322.833,381.871 c -0.258,-0.005 -26.109,-0.57 -53.849,-7.807 -24.776,-6.463 -56.088,-19.696 -64.552,-46.03 -15.083,-46.925 34.861,-113.407 74.992,-166.826 30.772,-40.96 55.077,-73.313 53.277,-95.816 C 331.6,51.627 320.427,38.469 299.493,26.283 283.924,17.22 262.719,8.47 236.467,0.274 c -3.164,-0.987 -6.528,0.776 -7.516,3.939 -0.987,3.163 0.776,6.528 3.939,7.515 74.494,23.257 87.015,44.204 87.848,54.62 1.438,17.972 -23.989,51.819 -50.909,87.652 -43.97,58.529 -93.806,124.867 -76.822,177.705 19.092,59.399 125.096,62.078 129.599,62.163 0.039,0 0.077,0.001 0.115,0.001 3.261,0 5.935,-2.612 5.997,-5.887 0.064,-3.312 -2.572,-6.049 -5.885,-6.111 z"
           id="path862" />
        <path
           style="fill:#ffffff"
           d="M 244.412,89.767 C 248.448,77.661 247.278,66 240.936,55.111 219.323,17.997 143.113,2.62 139.879,1.983 c -3.25,-0.642 -6.406,1.477 -7.046,4.728 -0.64,3.251 1.477,6.406 4.729,7.046 0.187,0.037 18.888,3.761 39.875,11.66 27.08,10.192 45.453,22.548 53.131,35.733 4.594,7.889 5.399,16.009 2.461,24.823 -4.137,12.41 -31.346,35.429 -60.153,59.799 -31.966,27.042 -68.196,57.692 -94.246,89.904 -31.357,38.775 -41,71.624 -29.48,100.423 10.19,25.477 26.378,45.971 49.486,62.653 1.063,0.767 2.29,1.136 3.507,1.136 1.861,0 3.697,-0.864 4.87,-2.489 1.939,-2.687 1.334,-6.437 -1.353,-8.376 -21.208,-15.311 -36.049,-34.08 -45.369,-57.381 -22.388,-55.97 60.103,-125.754 120.334,-176.709 32.732,-27.691 58.586,-49.563 63.787,-65.166 z"
           id="path864" />
        <path
           style="fill:#ffffff"
           d="m 90.915,128.189 c -2.083,2.578 -1.682,6.355 0.895,8.438 2.577,2.083 6.354,1.682 8.438,-0.895 L 111,122.428 v 28.273 c 0,3.313 2.686,6 6,6 3.314,0 6,-2.687 6,-6 v -28.273 l 10.752,13.304 c 1.186,1.467 2.92,2.229 4.67,2.229 1.324,0 2.657,-0.436 3.768,-1.333 2.577,-2.083 2.978,-5.86 0.895,-8.438 L 123,103.336 V 92.081 l 10.752,13.305 c 1.186,1.467 2.92,2.229 4.67,2.229 1.324,0 2.657,-0.436 3.768,-1.333 2.577,-2.083 2.978,-5.86 0.895,-8.438 L 123,72.99 V 61.734 l 10.752,13.304 c 1.186,1.467 2.92,2.229 4.67,2.229 1.324,0 2.657,-0.437 3.768,-1.333 2.577,-2.083 2.978,-5.861 0.895,-8.438 L 121.667,40.993 c -1.139,-1.41 -2.854,-2.229 -4.667,-2.229 -1.813,0 -3.527,0.819 -4.667,2.229 L 90.915,67.496 c -2.083,2.577 -1.682,6.355 0.895,8.438 2.577,2.082 6.354,1.682 8.438,-0.896 L 111,61.734 V 72.99 L 90.915,97.843 c -2.083,2.578 -1.682,6.355 0.895,8.438 2.577,2.083 6.354,1.682 8.438,-0.895 L 111,92.081 v 11.255 z"
           id="path866" />
        <path
           style="fill:#ffffff"
           d="m 344.764,260.612 c 1.186,1.467 2.92,2.229 4.67,2.229 1.324,0 2.657,-0.436 3.768,-1.333 2.577,-2.083 2.978,-5.86 0.895,-8.438 L 323,214.591 v -26.857 l 21.763,26.929 c 1.186,1.467 2.92,2.229 4.67,2.229 1.324,0 2.657,-0.436 3.768,-1.333 2.577,-2.083 2.978,-5.86 0.895,-8.438 l -32.43,-40.128 c -1.139,-1.409 -2.854,-2.229 -4.667,-2.229 -1.813,0 -3.527,0.819 -4.667,2.229 l -32.43,40.128 c -2.083,2.578 -1.682,6.355 0.895,8.438 2.577,2.083 6.354,1.682 8.438,-0.895 L 311,187.735 v 26.857 l -31.096,38.478 c -2.083,2.578 -1.682,6.355 0.895,8.438 2.577,2.083 6.354,1.682 8.438,-0.895 L 311,233.683 v 26.857 l -31.096,38.478 c -2.083,2.578 -1.682,6.355 0.895,8.438 2.577,2.083 6.354,1.682 8.438,-0.895 L 311,279.631 v 51.57 c 0,3.313 2.687,6 6,6 3.313,0 6,-2.687 6,-6 v -51.57 l 21.763,26.929 c 1.186,1.467 2.92,2.229 4.67,2.229 1.324,0 2.657,-0.436 3.768,-1.333 2.577,-2.083 2.978,-5.86 0.895,-8.438 L 323,260.54 v -26.857 z"
           id="path868" />
      </g>
      <g
         style="fill:#ffffff"
         id="g872" />
      <g
         style="fill:#ffffff"
         id="g874" />
      <g
         style="fill:#ffffff"
         id="g876" />
      <g
         style="fill:#ffffff"
         id="g878" />
      <g
         style="fill:#ffffff"
         id="g880" />
      <g
         style="fill:#ffffff"
         id="g882" />
      <g
         style="fill:#ffffff"
         id="g884" />
      <g
         style="fill:#ffffff"
         id="g886" />
      <g
         style="fill:#ffffff"
         id="g888" />
      <g
         style="fill:#ffffff"
         id="g890" />
      <g
         style="fill:#ffffff"
         id="g892" />
      <g
         style="fill:#ffffff"
         id="g894" />
      <g
         style="fill:#ffffff"
         id="g896" />
      <g
         style="fill:#ffffff"
         id="g898" />
      <g
         style="fill:#ffffff"
         id="g900" />
    </g>
  </g>
</svg>
